<?xml version="1.0" encoding="UTF-8"?>
<svg xmlns="http://www.w3.org/2000/svg" xmlns:xlink="http://www.w3.org/1999/xlink" width="218px" height="250px" viewBox="0 0 218 249" version="1.1">
<g id="surface1">
<path style=" stroke:none;fill-rule:nonzero;fill:rgb(10.588235%,45.098039%,72.941176%);fill-opacity:1;" d="M 18.253906 222.914062 L 0 0.417969 L 218 0.863281 L 198.699219 222.914062 L 109.824219 248.582031 Z M 18.253906 222.914062 "/>
<path style=" stroke:none;fill-rule:nonzero;fill:rgb(10.980392%,53.333333%,78.039216%);fill-opacity:1;" d="M 109.824219 227.09375 L 109.824219 21.609375 L 199.597656 21.90625 L 183.585938 205.753906 Z M 109.824219 227.09375 "/>
<path style=" stroke:none;fill-rule:nonzero;fill:rgb(100%,100%,100%);fill-opacity:1;" d="M 177.300781 47.871094 L 39.203125 47.871094 L 42.941406 74.730469 L 108.476562 74.730469 L 43.992188 102.339844 L 47.730469 128.304688 L 142.742188 128.304688 L 139.296875 164.566406 L 107.128906 170.835938 L 77.953125 163.375 L 75.710938 142.78125 L 48.925781 142.78125 L 52.515625 185.609375 L 109.972656 201.574219 L 165.035156 184.117188 L 172.066406 100.398438 L 113.859375 100.398438 L 177.300781 74.136719 Z M 177.300781 47.871094 "/>
</g>
</svg>
