<?xml version="1.0" encoding="utf-8"?>
<!-- Generator: Adobe Illustrator 24.1.0, SVG Export Plug-In . SVG Version: 6.00 Build 0)  -->
<svg version="1.1" id="Layer_1" xmlns="http://www.w3.org/2000/svg" xmlns:xlink="http://www.w3.org/1999/xlink" x="0px" y="0px"
	 viewBox="0 0 30 45" style="enable-background:new 0 0 30 45;" xml:space="preserve">
<style type="text/css">
	.st0{fill:#0ACF83;}
	.st1{fill:#A259FF;}
	.st2{fill:#F24E1E;}
	.st3{fill:#FF7262;}
	.st4{fill:#1ABCFE;}
</style>
<desc>Created using Figma</desc>
<g>
	<path id="path0_fill" class="st0" d="M7.5,45c4.1,0,7.5-3.4,7.5-7.5V30H7.5C3.4,30,0,33.4,0,37.5S3.4,45,7.5,45z"/>
	<path id="path1_fill" class="st1" d="M0,22.5C0,18.4,3.4,15,7.5,15H15v15H7.5C3.4,30,0,26.6,0,22.5z"/>
	<path id="path1_fill_1_" class="st2" d="M0,7.5C0,3.4,3.4,0,7.5,0H15v15H7.5C3.4,15,0,11.6,0,7.5z"/>
	<path id="path2_fill" class="st3" d="M15,0h7.5C26.6,0,30,3.4,30,7.5S26.6,15,22.5,15H15V0z"/>
	<path id="path3_fill" class="st4" d="M30,22.5c0,4.1-3.4,7.5-7.5,7.5S15,26.6,15,22.5s3.4-7.5,7.5-7.5S30,18.4,30,22.5z"/>
</g>
</svg>
