<?xml version="1.0" encoding="UTF-8"?>
<svg xmlns="http://www.w3.org/2000/svg" xmlns:xlink="http://www.w3.org/1999/xlink" width="250px" height="188px" viewBox="0 0 250 188" version="1.1">
<g id="surface1">
<path style=" stroke:none;fill-rule:nonzero;fill:rgb(81.176471%,39.215686%,60.392157%);fill-opacity:1;" d="M 215.136719 108.003906 C 206.398438 108.050781 198.828125 110.15625 192.480469 113.289062 C 190.136719 108.640625 187.792969 104.574219 187.402344 101.539062 C 186.964844 98.015625 186.425781 95.859375 186.964844 91.652344 C 187.5 87.441406 189.941406 81.464844 189.941406 80.976562 C 189.890625 80.535156 189.402344 78.382812 184.375 78.332031 C 179.347656 78.285156 175 79.3125 174.511719 80.632812 C 174.023438 81.957031 173.046875 84.992188 172.414062 88.125 C 171.53125 92.726562 162.351562 109.03125 157.128906 117.597656 C 155.421875 114.269531 153.953125 111.332031 153.660156 108.980469 C 153.222656 105.457031 152.683594 103.300781 153.222656 99.089844 C 153.761719 94.878906 156.203125 88.910156 156.203125 88.417969 C 156.152344 87.976562 155.664062 85.824219 150.636719 85.773438 C 145.605469 85.726562 141.261719 86.753906 140.773438 88.074219 C 140.285156 89.398438 139.746094 92.53125 138.671875 95.566406 C 137.648438 98.601562 125.4375 125.824219 122.265625 132.921875 C 120.65625 136.542969 119.238281 139.433594 118.210938 141.390625 C 117.1875 143.351562 118.164062 141.539062 118.066406 141.734375 C 117.1875 143.398438 116.699219 144.328125 116.699219 144.328125 L 116.699219 144.378906 C 116.015625 145.601562 115.28125 146.777344 114.941406 146.777344 C 114.695312 146.777344 114.207031 143.496094 115.039062 138.992188 C 116.84375 129.542969 121.238281 114.808594 121.191406 114.269531 C 121.191406 114.023438 122.019531 111.429688 118.359375 110.109375 C 114.792969 108.785156 113.523438 110.988281 113.230469 110.988281 C 112.9375 110.988281 112.695312 111.773438 112.695312 111.773438 C 112.695312 111.773438 116.648438 95.175781 105.125 95.175781 C 97.898438 95.175781 87.9375 103.058594 83.007812 110.253906 C 79.882812 111.96875 73.242188 115.589844 66.210938 119.460938 C 63.523438 120.929688 60.742188 122.496094 58.105469 123.914062 L 57.570312 123.324219 C 43.605469 108.394531 17.773438 97.820312 18.847656 77.746094 C 19.238281 70.449219 21.777344 51.210938 68.457031 27.90625 C 106.691406 8.8125 137.304688 14.050781 142.625 25.703125 C 150.195312 42.347656 126.269531 73.289062 86.523438 77.746094 C 71.386719 79.460938 63.429688 73.585938 61.425781 71.382812 C 59.328125 69.082031 59.035156 68.980469 58.253906 69.421875 C 56.984375 70.109375 57.765625 72.164062 58.253906 73.386719 C 59.425781 76.472656 64.308594 81.957031 72.609375 84.699219 C 79.882812 87.097656 97.65625 88.417969 119.140625 80.097656 C 143.214844 70.746094 162.011719 44.796875 156.496094 23.109375 C 150.878906 1.027344 114.355469 -6.21875 79.835938 6.070312 C 59.277344 13.414062 37.011719 24.871094 20.996094 39.902344 C 1.953125 57.722656 -1.074219 73.289062 0.195312 79.753906 C 4.640625 102.8125 36.328125 117.84375 49.023438 128.957031 C 48.390625 129.296875 47.804688 129.640625 47.265625 129.933594 C 40.917969 133.066406 16.75 145.75 10.695312 159.164062 C 3.859375 174.339844 11.769531 185.257812 17.042969 186.726562 C 33.351562 191.28125 50.046875 183.105469 59.082031 169.640625 C 68.066406 156.175781 66.992188 138.699219 62.839844 130.71875 L 62.695312 130.425781 L 67.675781 127.488281 C 70.898438 125.578125 74.070312 123.816406 76.855469 122.296875 C 75.292969 126.558594 74.167969 131.597656 73.585938 138.941406 C 72.898438 147.558594 76.414062 158.722656 81.054688 163.128906 C 83.105469 165.039062 85.546875 165.085938 87.0625 165.085938 C 92.429688 165.085938 94.875 160.632812 97.558594 155.296875 C 100.878906 148.785156 103.808594 141.246094 103.808594 141.246094 C 103.808594 141.246094 100.148438 161.660156 110.15625 161.660156 C 113.820312 161.660156 117.480469 156.910156 119.140625 154.464844 L 119.140625 154.511719 C 119.140625 154.511719 119.238281 154.363281 119.433594 154.023438 C 119.636719 153.71875 119.832031 153.410156 120.019531 153.09375 L 120.019531 152.996094 C 121.484375 150.449219 124.757812 144.621094 129.640625 134.976562 C 135.9375 122.542969 141.992188 106.972656 141.992188 106.972656 C 141.992188 106.972656 142.578125 110.792969 144.382812 117.058594 C 145.457031 120.78125 147.800781 124.84375 149.609375 128.808594 C 148.144531 130.867188 147.265625 132.042969 147.265625 132.042969 L 147.3125 132.089844 C 146.140625 133.65625 144.824219 135.320312 143.457031 136.984375 C 138.476562 142.957031 132.519531 149.765625 131.738281 151.722656 C 130.8125 154.023438 131.007812 155.738281 132.8125 157.109375 C 134.132812 158.085938 136.476562 158.28125 138.964844 158.085938 C 143.457031 157.792969 146.582031 156.667969 148.144531 155.980469 C 150.585938 155.101562 153.367188 153.777344 156.054688 151.820312 C 160.9375 148.199219 163.917969 143.058594 163.625 136.203125 C 163.476562 132.433594 162.257812 128.710938 160.742188 125.1875 C 161.179688 124.550781 161.621094 123.914062 162.0625 123.230469 C 169.777344 111.917969 175.734375 99.484375 175.734375 99.484375 C 175.734375 99.484375 176.320312 103.304688 178.125 109.570312 C 179.050781 112.753906 180.90625 116.230469 182.570312 119.65625 C 175.34375 125.578125 170.800781 132.433594 169.238281 136.9375 C 166.359375 145.261719 168.601562 149.03125 172.851562 149.910156 C 174.753906 150.304688 177.492188 149.421875 179.539062 148.542969 C 182.078125 147.707031 185.15625 146.289062 187.988281 144.183594 C 192.871094 140.5625 197.558594 135.519531 197.3125 128.714844 C 197.167969 125.578125 196.335938 122.496094 195.214844 119.558594 C 201.367188 117.011719 209.324219 115.542969 219.433594 116.765625 C 241.164062 119.3125 245.460938 132.921875 244.628906 138.601562 C 243.800781 144.28125 239.257812 147.414062 237.746094 148.394531 C 236.230469 149.324219 235.742188 149.667969 235.890625 150.351562 C 236.085938 151.382812 236.769531 151.332031 238.085938 151.136719 C 239.890625 150.84375 249.511719 146.484375 249.902344 136.007812 C 250.488281 122.542969 237.746094 107.855469 215.136719 108.003906 Z M 47.558594 164.648438 C 40.382812 172.527344 30.273438 175.515625 25.976562 172.96875 C 21.335938 170.277344 23.144531 158.675781 31.984375 150.300781 C 37.351562 145.210938 44.335938 140.511719 48.925781 137.621094 C 49.953125 136.984375 51.515625 136.054688 53.367188 134.929688 C 53.660156 134.734375 53.859375 134.636719 53.859375 134.636719 C 54.199219 134.441406 54.589844 134.195312 54.980469 133.949219 C 58.25 145.894531 55.125 156.371094 47.558594 164.648438 Z M 100.046875 128.859375 C 97.558594 134.976562 92.285156 150.695312 89.109375 149.8125 C 86.375 149.078125 84.71875 137.179688 88.574219 125.429688 C 90.527344 119.507812 94.675781 112.457031 97.117188 109.714844 C 101.074219 105.308594 105.371094 103.839844 106.445312 105.652344 C 107.714844 108.003906 101.609375 125.039062 100.046875 128.859375 Z M 143.359375 149.617188 C 142.285156 150.15625 141.308594 150.546875 140.867188 150.253906 C 140.527344 150.058594 141.308594 149.324219 141.308594 149.324219 C 141.308594 149.324219 146.726562 143.496094 148.875 140.804688 C 150.097656 139.238281 151.5625 137.425781 153.125 135.371094 L 153.125 135.957031 C 153.125 143.007812 146.386719 147.707031 143.359375 149.617188 Z M 176.757812 141.980469 C 175.976562 141.390625 176.074219 139.582031 178.710938 133.902344 C 179.734375 131.648438 182.078125 127.878906 186.132812 124.304688 C 186.621094 125.773438 186.914062 127.191406 186.863281 128.515625 C 186.816406 137.328125 180.566406 140.609375 176.757812 141.980469 Z M 176.757812 141.980469 "/>
</g>
</svg>
